<svg id="Layer_1" data-name="Layer 1" xmlns="http://www.w3.org/2000/svg" viewBox="0 0 668.9 674.48"><path d="M431.29,313.82C377.94,335,303.65,335.45,303.65,335.45a256.7,256.7,0,0,1-30-.42c-13.29-4.78-32.49-14.64-37-32.6,0,0-9-35.84,54.16-63.59,0,0,38.63-20.41,78.06-3.7l6.07,3,6.26,13.14C398.67,299.18,431.29,313.82,431.29,313.82Z" transform="translate(-90.75 -4.29)" style="fill:#4a9854"/><path d="M375,238.18l-6.07-3c-39.43-16.71-78.06,3.7-78.06,3.7-63.17,27.75-54.16,63.59-54.16,63.59,4.49,18,23.69,27.82,37,32.6C208,330.24,173.1,301.21,173.1,301.21c-55.51-39.62-58.93-98.74-57.68-123.25,35-58.64,83.2-68.23,99.48-71.78,3.66-.79,20-1.45,22.4-1.67,15.81-1.44,67.08,1.45,106.29,67.83Z" transform="translate(-90.75 -4.29)" style="fill:#9cca8c"/><path d="M375,238.18l-31.39-65.84C304.38,106,253.11,103.07,237.3,104.51c-2.43.22-18.74.88-22.4,1.67-16.28,3.55-64.52,13.14-99.48,71.78a100.57,100.57,0,0,1,1.12-11.27C137.94,35.22,265.13,60.9,265.13,60.9c96.61,20.79,100.18,115.34,100.18,115.34C369,209.39,375,238.18,375,238.18Z" transform="translate(-90.75 -4.29)" style="fill:#c0dbad"/><path d="M572,278a57.75,57.75,0,0,1-14.43,27.18c-74.44,5.68-122.41,63.43-122.41,63.43,7.22-30.32,10.2-48.49,10.2-48.49,1.11-8.84,2.16-17.72,2.82-26.51a199.48,199.48,0,0,0,.44-27c12.59-61.61,37.67-70.85,37.67-70.85,12.76-6,24.07-6.93,33.86-4.87,29.46,6.19,45.18,39.11,45.18,39.11a99.6,99.6,0,0,1,6.47,19.79A66.87,66.87,0,0,1,572,278Z" transform="translate(-90.75 -4.29)" style="fill:#f89e1d"/><path d="M747.34,153.49l-.11-.16c-32.29-43.2-80.22-67-140.36-69.9a152.4,152.4,0,0,0-17.67.13C484.84,90.31,454.74,205.14,448.44,263.62c-.09-1.08-.19-2.15-.3-3.22-5.15-47.93-10.43-94.13-10.43-94.13-9.93-89.77,33-149.88,93.9-159.59C641.78-10.89,724.83,71.32,747.34,153.49Z" transform="translate(-90.75 -4.29)" style="fill:#fbd374"/><path d="M751.85,184.27c0,17.08-2.75,32.4-7.83,45.84a103.49,103.49,0,0,1-10.9,21.22v0a98.46,98.46,0,0,1-26.48,26.57l-.24.16a127.27,127.27,0,0,1-32,14.66h0a140,140,0,0,1-28.49,5.72l-87.29,6.65-.95.08A57.75,57.75,0,0,0,572,278a66.87,66.87,0,0,0-.2-28.25A99.6,99.6,0,0,0,565.36,230s-15.72-32.92-45.18-39.11c-9.79-2.06-21.1-1.16-33.86,4.87,0,0-25.08,9.24-37.67,70.85-.06-1-.13-2-.21-3,6.3-58.48,36.4-173.31,140.76-180.06a152.4,152.4,0,0,1,17.67-.13c60.14,2.92,108.07,26.7,140.36,69.9.29.93.56,1.86.82,2.8q1,4,1.88,8A105.55,105.55,0,0,1,751.85,184.27Z" transform="translate(-90.75 -4.29)" style="fill:#fcc044"/><circle cx="640.16" cy="346.76" r="28.74" style="fill:#fcc044"/><circle cx="520.68" cy="343.36" r="10.46" style="fill:#fbd374"/><circle cx="101.86" cy="364.4" r="26.67" style="fill:#599bcd"/><circle cx="14.34" cy="427.42" r="14.34" style="fill:#599bcd"/><path d="M563.37,456.6s-10.79,3.27-33,2.06c-4.17-.23-8.74-.61-13.72-1.21a104,104,0,0,1-27.72-7.28L469,441.87l-.2-.93C451.47,391.71,432.77,383,432.77,383c53.64-15.45,100.33-15.45,100.33-15.45A179.9,179.9,0,0,1,557,369.28c4,.49,7.87,1.06,11.55,1.71a179.71,179.71,0,0,1,30.07,7.8c11.14,6.61,21.52,20.18,22.12,29.2C620.73,408,627.34,442.62,563.37,456.6Z" transform="translate(-90.75 -4.29)" style="fill:#f06a28"/><path d="M677.79,504.3c-.79,23.9-8.34,48.22-28.2,61.52-15.6,10.45-29.79,20.48-36.69,22.7-17.12,5.5-38.41-3.53-40.36-3.44-12.69.59-55.88,2.48-81.86-64.66l-6.42-6.65-1.83-8.48-6.85-37.9s-2-8.22-3.67-14.72q-.9-3.5-2.11-7.1l-.78-3.7,19.92,8.3a104,104,0,0,0,27.72,7.28c5,.6,9.55,1,13.72,1.21,22.2,1.21,33-2.06,33-2.06,64-14,57.36-48.61,57.36-48.61-.6-9-11-22.59-22.12-29.2,28.36,10.17,44,28.8,44,28.8C674.68,447.27,678.73,476,677.79,504.3Z" transform="translate(-90.75 -4.29)" style="fill:#f7b262"/><path d="M675,525.21c-11.63,57.5-41.19,76.38-41.19,76.38-56.4,42.65-106.91,5-106.91,5-43-26.14-46.49-80.95-46.49-80.95l-5.68-62c14.49,59.38,36.75,93.42,62.69,108.39,31,17.88,65.16,10.3,69.59,9.4C647.65,573.3,667.18,542.11,675,525.21Z" transform="translate(-90.75 -4.29)" style="fill:#f8c887"/><path d="M404.23,429.82c-.1,17.1.3,33.35.59,42.67-.5,6.28-1.17,12.27-2,18v0a61,61,0,0,1-5.7,13.1c-17.48,27.86-44.88,22.14-44.88,22.14-66.27-13.76-67-75.93-67-75.93-2.87-21,1.88-36.63,8.57-47.78l.83-.07a211.7,211.7,0,0,0,43.68-11c43.45-16.62,78.08-58.81,78.08-58.81l-9.29,46.26C405,391.16,404.33,411,404.23,429.82Z" transform="translate(-90.75 -4.29)" style="fill:#225ea0"/><path d="M402.84,490.49c-10.61,74.93-45.38,101-45.38,101-54.8,48.61-128.87,22.93-128.87,22.93s-63.89-21.67-90.24-71.32C133.05,519,135,501.62,135,501.62,139.62,461,164.85,440,164.85,440c30.23-28.48,119.41-37.14,129-38-6.69,11.15-11.44,26.77-8.57,47.78,0,0,.76,62.17,67,75.93,0,0,27.4,5.72,44.88-22.14A61,61,0,0,0,402.84,490.49Z" transform="translate(-90.75 -4.29)" style="fill:#599bcd"/><path d="M403.78,609.62c-24.08,75.21-101.12,69-101.12,69-73.38.68-121.53-57.56-121.53-57.56a156.38,156.38,0,0,1-42.78-78c26.35,49.65,90.24,71.32,90.24,71.32s74.07,25.68,128.87-22.93c0,0,34.77-26.08,45.38-101v0c.8-5.71,1.47-11.7,2-18,.15,5.05.28,8.06.28,8.06l.18,1C421.7,577.32,403.78,609.62,403.78,609.62Z" transform="translate(-90.75 -4.29)" style="fill:#82b5db"/></svg>